<svg width="79" height="82" viewBox="0 0 79 82" fill="none" xmlns="http://www.w3.org/2000/svg">
<path d="M0.864231 8.27757C1.02926 -0.865088 13.6001 -3.22736 17.0728 5.23172L17.5884 6.4878C19.3835 10.8604 24.7824 12.4223 28.6347 9.68347C35.8125 4.58053 44.2517 14.1328 38.3029 20.6268L29.624 30.1013C27.0099 32.955 26.8312 37.2766 29.2007 40.3364L39.3629 53.4593C44.3187 59.859 35.6022 67.8287 29.6709 62.321L22.6511 55.8027C21.1085 54.3702 18.5996 55.4643 18.5996 57.5695C18.5996 57.8805 18.5394 58.1887 18.4223 58.4769L17.9157 59.7238C14.0369 69.2716 -0.184185 66.3598 0.00180756 56.0558L0.864231 8.27757Z" fill="url(#paint0_linear_35_27)"/>
<path d="M33.5324 39.6399C28.5773 33.3808 33.8865 24.2958 41.7718 25.5405L73.6676 28.4027C79.8012 28.9531 80.8945 37.4565 75.0996 39.5405L67.9597 41.0909C58.982 43.0404 55.3521 53.8794 61.3449 60.8425C68.2561 68.8726 62.2638 81.2806 51.6774 80.8605L41.7718 80.4675L27.1115 81.458C23.3691 81.7109 20.4423 78.2827 21.279 74.6262C21.7771 72.4498 23.5212 70.7776 25.7167 70.3717L32.4693 69.123C42.1283 67.3369 46.4166 55.9147 40.3196 48.2132L33.5324 39.6399Z" fill="url(#paint1_linear_35_27)"/>
<defs>
<linearGradient id="paint0_linear_35_27" x1="46.286" y1="8.44685" x2="46.286" y2="62.9427" gradientUnits="userSpaceOnUse">
<stop stop-color="#FA1DFF"/>
<stop offset="1" stop-color="#FFD705"/>
</linearGradient>
<linearGradient id="paint1_linear_35_27" x1="75.3299" y1="8.25773" x2="75.3299" y2="68.1828" gradientUnits="userSpaceOnUse">
<stop stop-color="#17C3FA"/>
<stop offset="1" stop-color="#FA1DFF"/>
</linearGradient>
</defs>
</svg>
