<svg width="335" height="338" viewBox="0 0 335 338" fill="none" xmlns="http://www.w3.org/2000/svg">
<path d="M81.8158 13.608C104.24 -10.4286 144.268 -1.24453 153.97 30.1631C158.773 45.7105 171.981 57.1867 188.046 59.7722L237.862 67.7893C267.394 72.5421 283.505 104.917 269.489 131.342C259.216 150.71 264.902 174.694 282.778 187.388L303.855 202.355C342.187 229.575 345.226 285.38 310.078 316.602L307.998 318.45C291.094 333.465 268.34 340.091 246.018 336.499L163.437 323.209C108.463 314.361 61.0465 279.729 35.8933 230.053L9.85333 178.624C-7.47082 144.41 -1.59582 103.019 24.565 74.9764L81.8158 13.608Z" fill="#FA1DFF"/>
</svg>
