<svg width="113" height="59" viewBox="0 0 113 59" fill="none" xmlns="http://www.w3.org/2000/svg">
<path d="M21.4828 12.0999C25.3291 8.68097 18.6654 4.54932 15.8636 2.98034C10.6714 0.0726622 6.56718 4.16842 4.07264 8.27708C2.52846 10.8204 4.08045 14.5822 5.33925 16.89C6.80071 19.5694 11.4374 18.7828 13.8371 19.3542C16.2114 19.9195 18.0103 19.4052 19.8247 21.2196C20.9335 22.3283 21.64 25.1147 20.9761 26.6084C20.0589 28.6723 19.3556 30.8792 17.9133 32.6421C16.9296 33.8444 16.2909 34.899 14.7582 34.899C13.3381 34.899 11.918 34.899 10.4978 34.899C8.71744 34.899 2 33.4717 2 31.1682C2 28.8923 3.96618 28.681 6.12225 28.681C11.3652 28.681 18.4455 27.0992 23.1409 24.6279C28.8454 21.6255 36.0303 16.3017 38.2712 10.0273C39.2101 7.39825 36.3907 4.90555 34.6325 3.37184C33.2553 2.17043 32.3496 1.49793 30.8327 2.65793C27.9627 4.85261 27.2862 9.47081 27.2862 12.8369C27.2862 17.3586 27.2144 21.8304 26.8717 26.286C26.6536 29.121 24.04 37.1772 25.4208 34.6917C26.329 33.0569 25.9385 29.0455 27.7007 27.9441C29.4681 26.8395 30.7441 26.7738 31.7539 28.681C33.129 31.2785 34.3794 34.4844 37.8566 34.4844C42.1367 34.4844 43.0771 28.818 46.5387 27.829C49.0523 27.1108 50.8899 26.6453 53.6317 27.9441C55.0943 28.6369 55.9529 31.5023 54.9674 32.7342C53.5403 34.5181 47.7962 36.2737 45.7327 34.6687C44.6062 33.7925 44.1731 31.161 45.203 30.0167C46.2586 28.8439 48.1388 28.681 49.6707 28.681C51.7561 28.681 53.1067 28.1137 54.8523 29.5101C56.1587 30.5552 55.9503 33.2391 57.1322 33.9778C57.9952 34.5172 61.1861 36.6713 62.1065 35.5208C63.1765 34.1833 64.7013 31.8283 66.0445 30.7537C67.5858 29.5207 69.0838 29.4404 70.397 30.7537C72.0048 32.3614 71.7637 34.3425 71.6406 36.5571C71.579 37.667 71.5353 36.5835 71.963 35.728C72.5024 34.6493 73.1615 33.5653 73.8975 32.6191C75.4481 30.6255 77.0206 29.9246 79.9312 29.9246C83.2721 29.9246 86.4536 29.6682 89.7877 29.9246C92.5863 30.1399 87.9207 30.3009 87.3927 30.961C84.5996 34.4523 88.1753 37.3861 91.9525 37.3861C94.3118 37.3861 100.131 35.5549 97.5256 32.2045C95.5378 29.6488 91.3767 28.3127 88.9587 30.247C87.762 31.2043 86.4393 31.8624 85.7346 33.4481C84.8211 35.5033 86.5296 35.2863 87.7151 36.2347C90.0798 38.1264 93.732 38.1938 96.305 36.7643C97.0872 36.3298 97.3967 35.4997 97.7559 34.6917C98.1085 33.8983 97.7559 36.3773 97.7559 36.9716C97.7559 39.259 97.3413 41.6294 97.3413 44.0186C97.3413 47.8741 97.7559 51.8889 97.7559 55.8326C97.7559 60.3741 98.6593 46.5377 100.865 42.5677C101.635 41.182 102.07 39.215 103.053 38.1231C103.64 37.4707 105.169 35.3002 105.217 34.4844C105.313 32.8584 106.697 28.5847 105.425 29.6022C104.628 30.2399 105.217 34.8004 105.217 35.9353C105.217 39.1731 111.435 39.7297 111.435 36.5571" stroke="#CDCDCD" stroke-width="3" stroke-linecap="round"/>
<path d="M106.046 24.1213C106.281 21.7783 108.65 19.2959 110.606 18.3179" stroke="#CDCDCD" stroke-width="3" stroke-linecap="round"/>
</svg>
