<svg width="100" height="104" viewBox="0 0 100 104" fill="none" xmlns="http://www.w3.org/2000/svg">
<path d="M50 1.61279C22.3992 1.61279 0 24.012 0 51.6128C0 79.2136 22.3992 101.613 50 101.613C77.6008 101.613 100 79.2136 100 51.6128C100 24.012 77.6008 1.61279 50 1.61279ZM70.3024 75.1813C69.4556 75.1813 68.9315 74.9192 68.1452 74.4555C55.5645 66.8749 40.9274 66.5523 26.4718 69.516C25.6855 69.7176 24.6573 70.0402 24.0726 70.0402C22.1169 70.0402 20.8871 68.4878 20.8871 66.8547C20.8871 64.7781 22.1169 63.7902 23.629 63.4676C40.1411 59.8184 57.0161 60.141 71.4113 68.7499C72.6411 69.5362 73.3669 70.2418 73.3669 72.0765C73.3669 73.9112 71.9355 75.1813 70.3024 75.1813ZM75.7258 61.9555C74.6774 61.9555 73.9718 61.4918 73.246 61.1088C60.6452 53.6491 41.8548 50.6451 25.1411 55.1813C24.1734 55.4434 23.6492 55.7055 22.7419 55.7055C20.5847 55.7055 18.8306 53.9515 18.8306 51.7942C18.8306 49.637 19.879 48.2055 21.9556 47.6209C27.5605 46.0483 33.2863 44.8789 41.6734 44.8789C54.7581 44.8789 67.3992 48.1249 77.3589 54.0523C78.9919 55.0201 79.6371 56.27 79.6371 58.0241C79.6169 60.2015 77.9234 61.9555 75.7258 61.9555ZM81.9758 46.5926C80.9274 46.5926 80.2823 46.3305 79.375 45.8063C65.0202 37.2378 39.3548 35.1813 22.7419 39.8184C22.0161 40.0201 21.1089 40.3426 20.1411 40.3426C17.4798 40.3426 15.4435 38.266 15.4435 35.5846C15.4435 32.8426 17.1371 31.2902 18.9516 30.766C26.0484 28.6894 33.9919 27.7015 42.6411 27.7015C57.3589 27.7015 72.7823 30.766 84.0524 37.3386C85.625 38.2459 86.6532 39.4959 86.6532 41.8951C86.6532 44.637 84.4355 46.5926 81.9758 46.5926Z" fill="#1DB954"/>
</svg>
