<svg width="329" height="564" viewBox="0 0 329 564" fill="none" xmlns="http://www.w3.org/2000/svg">
<path d="M91.6757 154.057C63.5991 75.154 126.81 -6.25913 210.209 1.39086L230.443 3.24683C252.758 5.29369 273.469 15.7176 288.407 32.4202C318.176 65.7053 318.531 115.94 289.236 149.643L262.205 180.741C226.29 222.059 218.8 280.943 243.228 329.936L256.213 355.981C262.156 367.9 269.589 379.016 278.333 389.062L308.695 423.944C328.262 446.424 333.801 477.878 323.089 505.689C312.37 533.52 287.136 553.138 257.521 556.666L212.951 561.974C189.875 564.722 166.476 562.245 144.487 554.725L101.327 539.965C-4.55796 503.754 -34.3388 368.17 46.6245 290.918L62.7955 275.488C95.5328 244.252 106.845 196.687 91.6757 154.057Z" fill="#FFD705"/>
</svg>
